# xmcd
#
# Track frame offsets: 
#        150
#        23633
#        36825
#        55538
#        66908
#        80030
#        96575
#        108768
#        120226
#        147711
#        161453
#        169663
#        183631
#        195006
#
# Disc length: 2785 seconds
#
# Revision: 2
# Processed by: cddbd v1.5.2PL0 Copyright (c) Steve Scherf et al.
# Submitted via: ExactAudioCopy v0.99pb4
#
DISCID=b40adf0e
DTITLE=Νταλάρας Γιώργος - Το Ελληνικό πρόσωπο του 
DYEAR=1900
DGENRE=Folk
TTITLE0=Εξέδυσαν με τα ιμάτια μου
TTITLE1=Όσο βαρούν τα σίδερα
TTITLE2=Ο ζόρικος
TTITLE3=Ταξίδι στα Κύθηρα
TTITLE4=Ένας κόμπος η χαρά μου
TTITLE5=Έχω ένα καφενέ
TTITLE6=Δακρυσμενα μάτια
TTITLE7=Ωδή στο Γεώργιο Καραϊσκάκη
TTITLE8=Γυναίκα
TTITLE9=Αν είναι η αγάπη έγκλημα
TTITLE10=Η εκτέλεση
TTITLE11=Η μικρή Ραλλού
TTITLE12=Η μπαλάντα των αισθήσεων και των παραισθήσεων
TTITLE13=Στο Σείριο υπάρχουνε παιδιά
EXTD=
EXTT0=
EXTT1=
EXTT2=
EXTT3=
EXTT4=
EXTT5=
EXTT6=
EXTT7=
EXTT8=
EXTT9=
EXTT10=
EXTT11=
EXTT12=
EXTT13=
PLAYORDER=
